<svg xmlns="http://www.w3.org/2000/svg" width="100" viewBox="0 0 75 75" height="100" version="1.0"><defs><clipPath id="a"><path d="M7.5 14.426h60V38h-60zm0 0"/></clipPath><clipPath id="b"><path d="M7.5 24h60v36.926h-60zm0 0"/></clipPath></defs><g clip-path="url(#a)"><path fill="#faeab1" d="M37.5 37.293l29.988-18.137v-.078c0-.305-.027-.61-.09-.906a4.516 4.516 0 00-.261-.875 4.531 4.531 0 00-.426-.805 4.514 4.514 0 00-.574-.703 4.6 4.6 0 00-3.262-1.363h-50.75a4.61 4.61 0 00-2.563.785 4.508 4.508 0 00-.699.578c-.215.215-.406.45-.574.703a4.531 4.531 0 00-.426.805 4.516 4.516 0 00-.261.875c-.063.297-.09.601-.09.906v.078zm0 0"/></g><g clip-path="url(#b)"><path fill="#faeab1" d="M38.688 41.996a2.27 2.27 0 01-1.188.332 2.27 2.27 0 01-1.188-.332l-28.8-17.418v31.7c0 .304.027.609.09.906a4.598 4.598 0 00.687 1.675c.168.254.36.489.574.707a4.6 4.6 0 002.363 1.273c.297.06.594.087.899.087h50.75c.305 0 .602-.028.898-.086a4.6 4.6 0 002.938-1.98 4.598 4.598 0 00.688-1.676c.062-.297.09-.602.09-.907V24.578zm0 0"/></g></svg>