<svg xmlns="http://www.w3.org/2000/svg" width="100" viewBox="0 0 75 75" height="100" version="1.0"><defs><clipPath id="a"><path d="M19.605 54h38.25v13.5h-38.25zm0 0"/></clipPath><clipPath id="b"><path d="M20 7.5h37.855V53H20zm0 0"/></clipPath></defs><path fill="#faeab1" d="M42.953 20.707h-.281c-.66 0-1.2.535-1.2 1.191v6.676H39.93v-6.676c0-.656-.54-1.191-1.2-1.191-.66 0-1.199.535-1.199 1.191v6.676h-1.543v-6.676c0-.656-.539-1.191-1.199-1.191h-.281c-.66 0-1.2.535-1.2 1.191v8.915c0 2.375 1.547 4.39 3.696 5.105v15.488c0 .946.773 1.715 1.726 1.715.954 0 1.727-.77 1.727-1.715V35.918c2.148-.715 3.695-2.73 3.695-5.105v-8.915c0-.656-.535-1.191-1.199-1.191"/><g clip-path="url(#a)"><path fill="#faeab1" d="M50.867 54.398c2.735 1.141 4.406 2.668 4.406 4.344 0 3.531-7.406 6.395-16.543 6.395-9.136 0-16.542-2.864-16.542-6.395 0-1.676 1.671-3.203 4.406-4.344-4.262 1.356-6.98 3.41-6.98 5.711 0 4.078 8.558 7.387 19.116 7.387 10.56 0 19.118-3.308 19.118-7.387 0-2.3-2.72-4.355-6.98-5.71"/></g><g clip-path="url(#b)"><path fill="#faeab1" d="M38.73 7.496c-10.261 0-18.578 8.27-18.578 18.465 0 11.789 10.516 22.129 15.727 26.527a2.928 2.928 0 01-.203-1.082V38.211C30 36.848 25.78 31.766 25.78 25.703c0-7.11 5.797-12.871 12.95-12.871 7.152 0 12.949 5.762 12.949 12.871 0 6.063-4.22 11.145-9.895 12.508v13.195c0 .383-.07.746-.203 1.082 5.211-4.398 15.727-14.738 15.727-26.527 0-10.195-8.317-18.465-18.579-18.465"/></g></svg>