<svg xmlns="http://www.w3.org/2000/svg" width="100" viewBox="0 0 75 75" height="100" version="1.0"><defs><clipPath id="a"><path d="M13.078 0h48.75v75h-48.75zm0 0"/></clipPath></defs><g clip-path="url(#a)"><path fill="#faeab1" d="M61.828 24.484C61.828 10.992 50.914.06 37.457.06c-13.46 0-24.379 10.933-24.379 24.425 0 .239.031.477.035.715 0 .008-.015.008-.015.008 0 .543.039 1.113.101 1.7.012.109.028.21.035.32.063.5.141 1.02.239 1.543.066.375.132.742.218 1.101 3.72 16.555 23.758 45.074 23.758 45.074s17.992-26.113 23.059-42.578c.398-1.191.715-2.422.933-3.683.235-1.254.387-2.422.387-3.477 0-.082-.031-.148-.031-.227.004-.168.031-.328.031-.496zM37.457 37.23c-7.133 0-12.91-5.789-12.91-12.93 0-7.14 5.773-12.925 12.91-12.925 7.121 0 12.902 5.785 12.902 12.926 0 7.14-5.78 12.93-12.902 12.93zm0 0"/></g></svg>