<svg xmlns="http://www.w3.org/2000/svg" width="100" viewBox="0 0 75 75" height="100" version="1.0"><defs><clipPath id="a"><path d="M8.543 8.543h57.75v57.75H8.543zm0 0"/></clipPath></defs><g clip-path="url(#a)"><path fill="#faeab1" d="M65.578 50.938c.422 1.128.668 2.335.707 3.601.008.121.008.242.008.367 0 6.29-5.102 11.387-11.387 11.387-25.605 0-46.363-20.758-46.363-46.363 0-6.285 5.102-11.387 11.387-11.387.125 0 .246 0 .367.012a11.14 11.14 0 013.605.703l4.278 18.508c0 .007-.008.015-.016.02l-7.84 3.523-.023.007c3.597 10.957 12.262 19.622 23.219 23.22l.007-.024 3.532-7.844 18.52 4.27"/></g></svg>