<svg xmlns="http://www.w3.org/2000/svg" xmlns:xlink="http://www.w3.org/1999/xlink" width="100" zoomAndPan="magnify" viewBox="0 0 75 74.999997" height="100" preserveAspectRatio="xMidYMid meet" version="1.0"><defs><clipPath id="cef329c2d4"><path d="M 7.5 14.425781 L 67.5 14.425781 L 67.5 38 L 7.5 38 Z M 7.5 14.425781 " clip-rule="nonzero"/></clipPath><clipPath id="8c0c75e1f5"><path d="M 7.5 24 L 67.5 24 L 67.5 60.925781 L 7.5 60.925781 Z M 7.5 24 " clip-rule="nonzero"/></clipPath></defs><g clip-path="url(#cef329c2d4)"><path fill="#faeab1" d="M 37.5 37.292969 L 67.488281 19.15625 L 67.488281 19.078125 C 67.488281 18.773438 67.460938 18.46875 67.398438 18.171875 C 67.339844 17.871094 67.253906 17.578125 67.136719 17.296875 C 67.023438 17.015625 66.878906 16.746094 66.710938 16.492188 C 66.542969 16.238281 66.351562 16.003906 66.136719 15.789062 C 65.921875 15.574219 65.691406 15.378906 65.4375 15.210938 C 65.1875 15.042969 64.921875 14.898438 64.640625 14.78125 C 64.359375 14.664062 64.074219 14.578125 63.773438 14.515625 C 63.476562 14.457031 63.179688 14.425781 62.875 14.425781 L 12.125 14.425781 C 11.820312 14.425781 11.523438 14.457031 11.226562 14.515625 C 10.925781 14.578125 10.640625 14.664062 10.359375 14.78125 C 10.078125 14.898438 9.8125 15.042969 9.5625 15.210938 C 9.308594 15.378906 9.078125 15.574219 8.863281 15.789062 C 8.648438 16.003906 8.457031 16.238281 8.289062 16.492188 C 8.121094 16.746094 7.976562 17.015625 7.863281 17.296875 C 7.746094 17.578125 7.660156 17.871094 7.601562 18.171875 C 7.539062 18.46875 7.511719 18.773438 7.511719 19.078125 L 7.511719 19.15625 Z M 37.5 37.292969 " fill-opacity="1" fill-rule="nonzero"/></g><g clip-path="url(#8c0c75e1f5)"><path fill="#faeab1" d="M 38.6875 41.996094 C 38.324219 42.214844 37.925781 42.328125 37.5 42.328125 C 37.074219 42.328125 36.675781 42.214844 36.3125 41.996094 L 7.511719 24.578125 L 7.511719 56.277344 C 7.511719 56.582031 7.539062 56.886719 7.601562 57.183594 C 7.660156 57.484375 7.746094 57.773438 7.863281 58.058594 C 7.976562 58.339844 8.121094 58.605469 8.289062 58.859375 C 8.457031 59.113281 8.648438 59.347656 8.863281 59.566406 C 9.078125 59.78125 9.308594 59.972656 9.5625 60.144531 C 9.8125 60.3125 10.078125 60.457031 10.359375 60.574219 C 10.640625 60.691406 10.925781 60.777344 11.226562 60.839844 C 11.523438 60.898438 11.820312 60.925781 12.125 60.925781 L 62.875 60.925781 C 63.179688 60.925781 63.476562 60.898438 63.773438 60.839844 C 64.074219 60.777344 64.359375 60.691406 64.640625 60.574219 C 64.921875 60.457031 65.1875 60.3125 65.4375 60.144531 C 65.691406 59.972656 65.921875 59.78125 66.136719 59.566406 C 66.351562 59.347656 66.542969 59.113281 66.710938 58.859375 C 66.878906 58.605469 67.023438 58.339844 67.136719 58.058594 C 67.253906 57.773438 67.339844 57.484375 67.398438 57.183594 C 67.460938 56.886719 67.488281 56.582031 67.488281 56.277344 L 67.488281 24.578125 Z M 38.6875 41.996094 " fill-opacity="1" fill-rule="nonzero"/></g></svg>