<svg xmlns="http://www.w3.org/2000/svg" xmlns:xlink="http://www.w3.org/1999/xlink" width="100" zoomAndPan="magnify" viewBox="0 0 75 74.999997" height="100" preserveAspectRatio="xMidYMid meet" version="1.0"><defs><clipPath id="cf922bcba2"><path d="M 19.605469 54 L 57.855469 54 L 57.855469 67.5 L 19.605469 67.5 Z M 19.605469 54 " clip-rule="nonzero"/></clipPath><clipPath id="3a9eba8351"><path d="M 20 7.5 L 57.855469 7.5 L 57.855469 53 L 20 53 Z M 20 7.5 " clip-rule="nonzero"/></clipPath></defs><path fill="#faeab1" d="M 42.953125 20.707031 L 42.671875 20.707031 C 42.011719 20.707031 41.472656 21.242188 41.472656 21.898438 L 41.472656 28.574219 L 39.929688 28.574219 L 39.929688 21.898438 C 39.929688 21.242188 39.390625 20.707031 38.730469 20.707031 C 38.070312 20.707031 37.53125 21.242188 37.53125 21.898438 L 37.53125 28.574219 L 35.988281 28.574219 L 35.988281 21.898438 C 35.988281 21.242188 35.449219 20.707031 34.789062 20.707031 L 34.507812 20.707031 C 33.847656 20.707031 33.308594 21.242188 33.308594 21.898438 L 33.308594 30.8125 C 33.308594 33.1875 34.855469 35.203125 37.003906 35.917969 L 37.003906 51.40625 C 37.003906 52.351562 37.777344 53.121094 38.730469 53.121094 C 39.683594 53.121094 40.457031 52.351562 40.457031 51.40625 L 40.457031 35.917969 C 42.605469 35.203125 44.152344 33.1875 44.152344 30.8125 L 44.152344 21.898438 C 44.152344 21.242188 43.617188 20.707031 42.953125 20.707031 " fill-opacity="1" fill-rule="nonzero"/><g clip-path="url(#cf922bcba2)"><path fill="#faeab1" d="M 50.867188 54.398438 C 53.601562 55.539062 55.273438 57.066406 55.273438 58.742188 C 55.273438 62.273438 47.867188 65.136719 38.730469 65.136719 C 29.59375 65.136719 22.1875 62.273438 22.1875 58.742188 C 22.1875 57.066406 23.859375 55.539062 26.59375 54.398438 C 22.332031 55.753906 19.613281 57.808594 19.613281 60.109375 C 19.613281 64.1875 28.171875 67.496094 38.730469 67.496094 C 49.289062 67.496094 57.847656 64.1875 57.847656 60.109375 C 57.847656 57.808594 55.128906 55.753906 50.867188 54.398438 " fill-opacity="1" fill-rule="nonzero"/></g><g clip-path="url(#3a9eba8351)"><path fill="#faeab1" d="M 38.730469 7.496094 C 28.46875 7.496094 20.152344 15.765625 20.152344 25.960938 C 20.152344 37.75 30.667969 48.089844 35.878906 52.488281 C 35.746094 52.152344 35.675781 51.789062 35.675781 51.40625 L 35.675781 38.210938 C 30 36.847656 25.78125 31.765625 25.78125 25.703125 C 25.78125 18.59375 31.578125 12.832031 38.730469 12.832031 C 45.882812 12.832031 51.679688 18.59375 51.679688 25.703125 C 51.679688 31.765625 47.460938 36.847656 41.785156 38.210938 L 41.785156 51.40625 C 41.785156 51.789062 41.714844 52.152344 41.582031 52.488281 C 46.792969 48.089844 57.308594 37.75 57.308594 25.960938 C 57.308594 15.765625 48.992188 7.496094 38.730469 7.496094 " fill-opacity="1" fill-rule="nonzero"/></g></svg>