<svg xmlns="http://www.w3.org/2000/svg" xmlns:xlink="http://www.w3.org/1999/xlink" width="100" zoomAndPan="magnify" viewBox="0 0 75 74.999997" height="100" preserveAspectRatio="xMidYMid meet" version="1.0"><defs><clipPath id="75a431e6f1"><path d="M 13.078125 0 L 61.828125 0 L 61.828125 75 L 13.078125 75 Z M 13.078125 0 " clip-rule="nonzero"/></clipPath></defs><g clip-path="url(#75a431e6f1)"><path fill="#faeab1" d="M 61.828125 24.484375 C 61.828125 10.992188 50.914062 0.0585938 37.457031 0.0585938 C 23.996094 0.0585938 13.078125 10.992188 13.078125 24.484375 C 13.078125 24.722656 13.109375 24.960938 13.113281 25.199219 C 13.113281 25.207031 13.097656 25.207031 13.097656 25.207031 C 13.097656 25.75 13.136719 26.320312 13.199219 26.90625 C 13.210938 27.015625 13.226562 27.117188 13.234375 27.226562 C 13.296875 27.726562 13.375 28.246094 13.472656 28.769531 C 13.539062 29.144531 13.605469 29.511719 13.691406 29.871094 C 17.410156 46.425781 37.449219 74.945312 37.449219 74.945312 C 37.449219 74.945312 55.441406 48.832031 60.507812 32.367188 C 60.90625 31.175781 61.222656 29.945312 61.441406 28.683594 C 61.675781 27.429688 61.828125 26.261719 61.828125 25.207031 C 61.828125 25.125 61.796875 25.058594 61.796875 24.980469 C 61.800781 24.8125 61.828125 24.652344 61.828125 24.484375 Z M 37.457031 37.230469 C 30.324219 37.230469 24.546875 31.441406 24.546875 24.300781 C 24.546875 17.160156 30.320312 11.375 37.457031 11.375 C 44.578125 11.375 50.359375 17.160156 50.359375 24.300781 C 50.359375 31.441406 44.578125 37.230469 37.457031 37.230469 Z M 37.457031 37.230469 " fill-opacity="1" fill-rule="nonzero"/></g></svg>