<svg xmlns="http://www.w3.org/2000/svg" xmlns:xlink="http://www.w3.org/1999/xlink" width="100" zoomAndPan="magnify" viewBox="0 0 75 74.999997" height="100" preserveAspectRatio="xMidYMid meet" version="1.0"><defs><clipPath id="16a18e0a72"><path d="M 8.542969 8.542969 L 66.292969 8.542969 L 66.292969 66.292969 L 8.542969 66.292969 Z M 8.542969 8.542969 " clip-rule="nonzero"/></clipPath></defs><g clip-path="url(#16a18e0a72)"><path fill="#faeab1" d="M 65.578125 50.9375 C 66 52.066406 66.246094 53.273438 66.285156 54.539062 C 66.292969 54.660156 66.292969 54.78125 66.292969 54.90625 C 66.292969 61.195312 61.191406 66.292969 54.90625 66.292969 C 29.300781 66.292969 8.542969 45.535156 8.542969 19.929688 C 8.542969 13.644531 13.644531 8.542969 19.929688 8.542969 C 20.054688 8.542969 20.175781 8.542969 20.296875 8.554688 C 21.5625 8.589844 22.777344 8.835938 23.902344 9.257812 L 28.179688 27.765625 C 28.179688 27.773438 28.171875 27.78125 28.164062 27.785156 L 20.324219 31.308594 L 20.300781 31.316406 C 23.898438 42.273438 32.5625 50.9375 43.519531 54.535156 L 43.527344 54.511719 L 47.058594 46.667969 L 65.578125 50.9375 " fill-opacity="1" fill-rule="nonzero"/></g></svg>